<mxfile host="app.diagrams.net" modified="2022-07-15T12:43:36.398Z" agent="5.0 (Windows NT 10.0; Win64; x64) AppleWebKit/537.36 (KHTML, like Gecko) Chrome/103.0.0.0 Safari/537.36" etag="fyBEJGwIPUtyOZ34-3Bs" version="20.1.1" type="github">
  <diagram name="Page-1" id="e7e014a7-5840-1c2e-5031-d8a46d1fe8dd">
    <mxGraphModel dx="1038" dy="547" grid="1" gridSize="10" guides="1" tooltips="1" connect="1" arrows="1" fold="1" page="1" pageScale="1" pageWidth="1169" pageHeight="826" background="none" math="0" shadow="0">
      <root>
        <mxCell id="0" />
        <mxCell id="1" parent="0" />
        <mxCell id="9L8peLnERHQGu5c24tz0-55" style="edgeStyle=orthogonalEdgeStyle;rounded=0;orthogonalLoop=1;jettySize=auto;html=1;strokeColor=#FF0000;" edge="1" parent="1" source="13">
          <mxGeometry relative="1" as="geometry">
            <mxPoint x="600" y="230" as="targetPoint" />
          </mxGeometry>
        </mxCell>
        <mxCell id="9L8peLnERHQGu5c24tz0-59" value="" style="group" vertex="1" connectable="0" parent="1">
          <mxGeometry x="170" y="128" width="850" height="610" as="geometry" />
        </mxCell>
        <mxCell id="2" value="Battery Check" style="swimlane;whiteSpace=wrap;startSize=23;" parent="9L8peLnERHQGu5c24tz0-59" vertex="1">
          <mxGeometry width="280" height="610" as="geometry" />
        </mxCell>
        <mxCell id="5" value="" style="ellipse;shape=startState;fillColor=#000000;strokeColor=#ff0000;" parent="2" vertex="1">
          <mxGeometry x="110" y="52" width="30" height="30" as="geometry" />
        </mxCell>
        <mxCell id="6" value="" style="edgeStyle=elbowEdgeStyle;elbow=horizontal;verticalAlign=bottom;endArrow=open;endSize=8;strokeColor=#FF0000;endFill=1;rounded=0;entryX=0.515;entryY=-0.076;entryDx=0;entryDy=0;entryPerimeter=0;" parent="2" source="5" target="7" edge="1">
          <mxGeometry x="100" y="40" as="geometry">
            <mxPoint x="115" y="110" as="targetPoint" />
            <Array as="points">
              <mxPoint x="127" y="92" />
              <mxPoint x="127" y="82" />
            </Array>
          </mxGeometry>
        </mxCell>
        <mxCell id="7" value="Check battery state" style="" parent="2" vertex="1">
          <mxGeometry x="60" y="110" width="130" height="50" as="geometry" />
        </mxCell>
        <mxCell id="9" value="" style="endArrow=open;strokeColor=#FF0000;endFill=1;rounded=0;entryX=0.5;entryY=0;entryDx=0;entryDy=0;" parent="2" target="9L8peLnERHQGu5c24tz0-43" edge="1">
          <mxGeometry relative="1" as="geometry">
            <mxPoint x="115.5" y="162" as="sourcePoint" />
            <mxPoint x="115.1099999999999" y="219.79999999999995" as="targetPoint" />
          </mxGeometry>
        </mxCell>
        <mxCell id="10" value="Change RGB Color &#xa;to Orange  " style="" parent="2" vertex="1">
          <mxGeometry x="60" y="275" width="110" height="50" as="geometry" />
        </mxCell>
        <mxCell id="11" value="" style="endArrow=open;strokeColor=#FF0000;endFill=1;rounded=0;exitX=0.5;exitY=1;exitDx=0;exitDy=0;entryX=0.501;entryY=0.04;entryDx=0;entryDy=0;entryPerimeter=0;" parent="2" source="9L8peLnERHQGu5c24tz0-43" target="10" edge="1">
          <mxGeometry relative="1" as="geometry">
            <mxPoint x="115" y="270" as="sourcePoint" />
            <mxPoint x="115.5" y="312" as="targetPoint" />
          </mxGeometry>
        </mxCell>
        <mxCell id="9L8peLnERHQGu5c24tz0-44" style="edgeStyle=orthogonalEdgeStyle;rounded=0;orthogonalLoop=1;jettySize=auto;html=1;fillColor=#f8cecc;strokeColor=#FF0000;" edge="1" parent="2" source="9L8peLnERHQGu5c24tz0-43">
          <mxGeometry relative="1" as="geometry">
            <mxPoint x="191" y="142" as="targetPoint" />
            <Array as="points">
              <mxPoint x="230" y="221" />
              <mxPoint x="230" y="142" />
              <mxPoint x="191" y="142" />
            </Array>
          </mxGeometry>
        </mxCell>
        <mxCell id="9L8peLnERHQGu5c24tz0-43" value="Battery Low?" style="rhombus;fillColor=#ffffc0;strokeColor=#ff0000;" vertex="1" parent="2">
          <mxGeometry x="62.5" y="192" width="105" height="58" as="geometry" />
        </mxCell>
        <mxCell id="9L8peLnERHQGu5c24tz0-47" value="No" style="text;html=1;align=center;verticalAlign=middle;resizable=0;points=[];autosize=1;strokeColor=none;fillColor=none;" vertex="1" parent="2">
          <mxGeometry x="180" y="192" width="40" height="30" as="geometry" />
        </mxCell>
        <mxCell id="9L8peLnERHQGu5c24tz0-90" style="edgeStyle=orthogonalEdgeStyle;rounded=0;orthogonalLoop=1;jettySize=auto;html=1;exitX=0.5;exitY=1;exitDx=0;exitDy=0;entryX=0.48;entryY=-0.044;entryDx=0;entryDy=0;entryPerimeter=0;strokeColor=#FF0000;" edge="1" parent="2" source="9L8peLnERHQGu5c24tz0-85" target="9L8peLnERHQGu5c24tz0-88">
          <mxGeometry relative="1" as="geometry" />
        </mxCell>
        <mxCell id="9L8peLnERHQGu5c24tz0-99" style="edgeStyle=orthogonalEdgeStyle;rounded=0;orthogonalLoop=1;jettySize=auto;html=1;entryX=0.006;entryY=0.452;entryDx=0;entryDy=0;entryPerimeter=0;strokeColor=#FF0000;" edge="1" parent="2" source="9L8peLnERHQGu5c24tz0-85" target="7">
          <mxGeometry relative="1" as="geometry">
            <Array as="points">
              <mxPoint x="40" y="396" />
              <mxPoint x="40" y="133" />
            </Array>
          </mxGeometry>
        </mxCell>
        <mxCell id="9L8peLnERHQGu5c24tz0-85" value="Critical Battery&#xa;Level?" style="rhombus;fillColor=#ffffc0;strokeColor=#ff0000;" vertex="1" parent="2">
          <mxGeometry x="57.5" y="362" width="110" height="68" as="geometry" />
        </mxCell>
        <mxCell id="9L8peLnERHQGu5c24tz0-94" value="" style="edgeStyle=orthogonalEdgeStyle;rounded=0;orthogonalLoop=1;jettySize=auto;html=1;strokeColor=#FF0000;entryX=0.48;entryY=0.019;entryDx=0;entryDy=0;entryPerimeter=0;" edge="1" parent="2" source="9L8peLnERHQGu5c24tz0-88" target="9L8peLnERHQGu5c24tz0-91">
          <mxGeometry relative="1" as="geometry">
            <Array as="points">
              <mxPoint x="115" y="492" />
              <mxPoint x="113" y="492" />
            </Array>
          </mxGeometry>
        </mxCell>
        <mxCell id="9L8peLnERHQGu5c24tz0-88" value="Change RGB Color &#xa;to Red" style="" vertex="1" parent="2">
          <mxGeometry x="60" y="452" width="110" height="38" as="geometry" />
        </mxCell>
        <mxCell id="9L8peLnERHQGu5c24tz0-91" value="Activate&#xa;Vibration Motor" style="" vertex="1" parent="2">
          <mxGeometry x="60" y="512" width="110" height="32" as="geometry" />
        </mxCell>
        <mxCell id="9L8peLnERHQGu5c24tz0-98" style="edgeStyle=orthogonalEdgeStyle;rounded=0;orthogonalLoop=1;jettySize=auto;html=1;entryX=1;entryY=0.24;entryDx=0;entryDy=0;entryPerimeter=0;strokeColor=#FF0000;exitX=0.769;exitY=0.059;exitDx=0;exitDy=0;exitPerimeter=0;" edge="1" parent="2" source="9L8peLnERHQGu5c24tz0-96" target="7">
          <mxGeometry relative="1" as="geometry">
            <Array as="points">
              <mxPoint x="250" y="122" />
            </Array>
          </mxGeometry>
        </mxCell>
        <mxCell id="9L8peLnERHQGu5c24tz0-96" value="Motors to Initial state" style="whiteSpace=wrap;html=1;fillColor=rgb(255, 255, 255);strokeColor=rgb(0, 0, 0);fontColor=rgb(0, 0, 0);" vertex="1" parent="2">
          <mxGeometry x="200" y="510" width="65" height="34" as="geometry" />
        </mxCell>
        <mxCell id="9L8peLnERHQGu5c24tz0-97" value="" style="edgeStyle=orthogonalEdgeStyle;rounded=0;orthogonalLoop=1;jettySize=auto;html=1;strokeColor=#FF0000;entryX=-0.022;entryY=0.51;entryDx=0;entryDy=0;entryPerimeter=0;" edge="1" parent="2" target="9L8peLnERHQGu5c24tz0-96">
          <mxGeometry relative="1" as="geometry">
            <mxPoint x="170" y="527" as="sourcePoint" />
          </mxGeometry>
        </mxCell>
        <mxCell id="9L8peLnERHQGu5c24tz0-101" value="Yes" style="text;html=1;align=center;verticalAlign=middle;resizable=0;points=[];autosize=1;strokeColor=none;fillColor=none;" vertex="1" parent="2">
          <mxGeometry x="120" y="422" width="40" height="30" as="geometry" />
        </mxCell>
        <mxCell id="9L8peLnERHQGu5c24tz0-115" value="Critical section" style="shape=note;whiteSpace=wrap;html=1;backgroundOutline=1;darkOpacity=0.05;size=15;" vertex="1" parent="2">
          <mxGeometry x="160" y="332" width="70" height="48" as="geometry" />
        </mxCell>
        <mxCell id="9L8peLnERHQGu5c24tz0-117" value="" style="endArrow=none;dashed=1;html=1;dashPattern=1 3;strokeWidth=2;rounded=0;exitX=1.025;exitY=0.512;exitDx=0;exitDy=0;exitPerimeter=0;entryX=0.5;entryY=0;entryDx=0;entryDy=0;entryPerimeter=0;" edge="1" parent="2" source="10" target="9L8peLnERHQGu5c24tz0-115">
          <mxGeometry width="50" height="50" relative="1" as="geometry">
            <mxPoint x="180" y="302" as="sourcePoint" />
            <mxPoint x="230" y="252" as="targetPoint" />
            <Array as="points">
              <mxPoint x="195" y="301" />
            </Array>
          </mxGeometry>
        </mxCell>
        <mxCell id="9L8peLnERHQGu5c24tz0-122" value="" style="endArrow=none;dashed=1;html=1;dashPattern=1 3;strokeWidth=2;rounded=0;" edge="1" parent="2">
          <mxGeometry width="50" height="50" relative="1" as="geometry">
            <mxPoint x="167.5" y="512" as="sourcePoint" />
            <mxPoint x="200" y="472" as="targetPoint" />
          </mxGeometry>
        </mxCell>
        <mxCell id="3" value="Movement" style="swimlane;whiteSpace=wrap" parent="9L8peLnERHQGu5c24tz0-59" vertex="1">
          <mxGeometry x="280" width="290" height="610" as="geometry" />
        </mxCell>
        <mxCell id="13" value="" style="ellipse;shape=startState;fillColor=#000000;strokeColor=#ff0000;" parent="3" vertex="1">
          <mxGeometry x="135" y="40" width="30" height="30" as="geometry" />
        </mxCell>
        <mxCell id="9L8peLnERHQGu5c24tz0-57" style="edgeStyle=orthogonalEdgeStyle;rounded=0;orthogonalLoop=1;jettySize=auto;html=1;entryX=0.479;entryY=-0.068;entryDx=0;entryDy=0;entryPerimeter=0;strokeColor=#FF0000;" edge="1" parent="3" target="9L8peLnERHQGu5c24tz0-56">
          <mxGeometry relative="1" as="geometry">
            <mxPoint x="150" y="221" as="sourcePoint" />
          </mxGeometry>
        </mxCell>
        <mxCell id="9L8peLnERHQGu5c24tz0-62" style="edgeStyle=orthogonalEdgeStyle;rounded=0;orthogonalLoop=1;jettySize=auto;html=1;strokeColor=#FF0000;" edge="1" parent="3">
          <mxGeometry relative="1" as="geometry">
            <mxPoint x="202.5" y="192" as="sourcePoint" />
            <mxPoint x="203" y="349" as="targetPoint" />
            <Array as="points">
              <mxPoint x="240" y="192" />
              <mxPoint x="240" y="349" />
              <mxPoint x="203" y="349" />
            </Array>
          </mxGeometry>
        </mxCell>
        <mxCell id="9L8peLnERHQGu5c24tz0-52" value="Grip changed?" style="rhombus;fillColor=#ffffc0;strokeColor=#ff0000;" vertex="1" parent="3">
          <mxGeometry x="97.5" y="162" width="105" height="58" as="geometry" />
        </mxCell>
        <mxCell id="9L8peLnERHQGu5c24tz0-60" style="edgeStyle=orthogonalEdgeStyle;rounded=0;orthogonalLoop=1;jettySize=auto;html=1;strokeColor=#FF0000;entryX=0.487;entryY=0.011;entryDx=0;entryDy=0;entryPerimeter=0;" edge="1" parent="3" target="9L8peLnERHQGu5c24tz0-58">
          <mxGeometry relative="1" as="geometry">
            <mxPoint x="150" y="269" as="sourcePoint" />
            <Array as="points">
              <mxPoint x="151" y="269" />
            </Array>
          </mxGeometry>
        </mxCell>
        <mxCell id="9L8peLnERHQGu5c24tz0-56" value="Change RGB color" style="rounded=0;whiteSpace=wrap;html=1;" vertex="1" parent="3">
          <mxGeometry x="102.5" y="249" width="100" height="38" as="geometry" />
        </mxCell>
        <mxCell id="9L8peLnERHQGu5c24tz0-58" value="read signal" style="rounded=0;whiteSpace=wrap;html=1;" vertex="1" parent="3">
          <mxGeometry x="102.5" y="342" width="100" height="35" as="geometry" />
        </mxCell>
        <mxCell id="9L8peLnERHQGu5c24tz0-68" style="edgeStyle=orthogonalEdgeStyle;rounded=0;orthogonalLoop=1;jettySize=auto;html=1;entryX=0.5;entryY=0;entryDx=0;entryDy=0;entryPerimeter=0;strokeColor=#FF0000;" edge="1" parent="3" source="9L8peLnERHQGu5c24tz0-65" target="9L8peLnERHQGu5c24tz0-67">
          <mxGeometry relative="1" as="geometry" />
        </mxCell>
        <mxCell id="9L8peLnERHQGu5c24tz0-65" value="signal reached&#xa; threshold?" style="rhombus;fillColor=#ffffc0;strokeColor=#ff0000;" vertex="1" parent="3">
          <mxGeometry x="90" y="409" width="120" height="78" as="geometry" />
        </mxCell>
        <mxCell id="9L8peLnERHQGu5c24tz0-67" value="activate motors" style="rounded=0;whiteSpace=wrap;html=1;" vertex="1" parent="3">
          <mxGeometry x="90" y="542" width="120" height="41" as="geometry" />
        </mxCell>
        <mxCell id="9L8peLnERHQGu5c24tz0-69" value="yes" style="text;html=1;align=center;verticalAlign=middle;resizable=0;points=[];autosize=1;strokeColor=none;fillColor=none;" vertex="1" parent="3">
          <mxGeometry x="150" y="487" width="40" height="30" as="geometry" />
        </mxCell>
        <mxCell id="9L8peLnERHQGu5c24tz0-63" value="No" style="text;html=1;align=center;verticalAlign=middle;resizable=0;points=[];autosize=1;strokeColor=none;fillColor=none;" vertex="1" parent="3">
          <mxGeometry x="200" y="162" width="40" height="30" as="geometry" />
        </mxCell>
        <mxCell id="9L8peLnERHQGu5c24tz0-71" value="read Grip" style="rounded=0;whiteSpace=wrap;html=1;" vertex="1" parent="3">
          <mxGeometry x="95" y="102" width="110" height="38" as="geometry" />
        </mxCell>
        <mxCell id="9L8peLnERHQGu5c24tz0-72" style="edgeStyle=orthogonalEdgeStyle;rounded=0;orthogonalLoop=1;jettySize=auto;html=1;strokeColor=#FF0000;" edge="1" parent="3">
          <mxGeometry relative="1" as="geometry">
            <mxPoint x="150" y="162" as="targetPoint" />
            <mxPoint x="150" y="142" as="sourcePoint" />
            <Array as="points">
              <mxPoint x="150.5" y="152" />
              <mxPoint x="150.5" y="152" />
            </Array>
          </mxGeometry>
        </mxCell>
        <mxCell id="9L8peLnERHQGu5c24tz0-75" value="No" style="text;html=1;align=center;verticalAlign=middle;resizable=0;points=[];autosize=1;strokeColor=none;fillColor=none;" vertex="1" parent="3">
          <mxGeometry x="55" y="422" width="40" height="30" as="geometry" />
        </mxCell>
        <mxCell id="9L8peLnERHQGu5c24tz0-107" value="Critical section" style="shape=note;whiteSpace=wrap;html=1;backgroundOutline=1;darkOpacity=0.05;size=15;" vertex="1" parent="3">
          <mxGeometry x="200" y="478" width="70" height="48" as="geometry" />
        </mxCell>
        <mxCell id="9L8peLnERHQGu5c24tz0-109" value="" style="endArrow=none;dashed=1;html=1;dashPattern=1 3;strokeWidth=2;rounded=0;exitX=1.043;exitY=0.507;exitDx=0;exitDy=0;exitPerimeter=0;entryX=0.5;entryY=1;entryDx=0;entryDy=0;entryPerimeter=0;" edge="1" parent="3" source="9L8peLnERHQGu5c24tz0-67" target="9L8peLnERHQGu5c24tz0-107">
          <mxGeometry width="50" height="50" relative="1" as="geometry">
            <mxPoint x="190" y="560" as="sourcePoint" />
            <mxPoint x="240" y="510" as="targetPoint" />
            <Array as="points">
              <mxPoint x="235" y="563" />
            </Array>
          </mxGeometry>
        </mxCell>
        <mxCell id="9L8peLnERHQGu5c24tz0-76" style="edgeStyle=orthogonalEdgeStyle;rounded=0;orthogonalLoop=1;jettySize=auto;html=1;strokeColor=#FF0000;" edge="1" parent="3">
          <mxGeometry relative="1" as="geometry">
            <mxPoint x="90" y="112" as="targetPoint" />
            <mxPoint x="90" y="560" as="sourcePoint" />
            <Array as="points">
              <mxPoint x="30" y="560" />
              <mxPoint x="30" y="112" />
              <mxPoint x="90" y="112" />
            </Array>
          </mxGeometry>
        </mxCell>
        <mxCell id="9L8peLnERHQGu5c24tz0-110" value="" style="endArrow=none;dashed=1;html=1;dashPattern=1 3;strokeWidth=2;rounded=0;entryX=1.031;entryY=0.516;entryDx=0;entryDy=0;entryPerimeter=0;exitX=0.5;exitY=0;exitDx=0;exitDy=0;exitPerimeter=0;" edge="1" parent="3" source="9L8peLnERHQGu5c24tz0-107" target="9L8peLnERHQGu5c24tz0-56">
          <mxGeometry width="50" height="50" relative="1" as="geometry">
            <mxPoint x="240" y="452" as="sourcePoint" />
            <mxPoint x="220" y="382" as="targetPoint" />
            <Array as="points">
              <mxPoint x="230" y="269" />
            </Array>
          </mxGeometry>
        </mxCell>
        <mxCell id="4" value="Temperature Check" style="swimlane;whiteSpace=wrap" parent="9L8peLnERHQGu5c24tz0-59" vertex="1">
          <mxGeometry x="570" width="280" height="610" as="geometry" />
        </mxCell>
        <mxCell id="33" value="Activate &#xa;Vibration Motor" style="" parent="4" vertex="1">
          <mxGeometry x="87.5" y="302" width="110" height="50" as="geometry" />
        </mxCell>
        <mxCell id="9L8peLnERHQGu5c24tz0-41" value="" style="ellipse;shape=startState;fillColor=#000000;strokeColor=#ff0000;" vertex="1" parent="4">
          <mxGeometry x="125" y="50" width="30" height="30" as="geometry" />
        </mxCell>
        <mxCell id="9L8peLnERHQGu5c24tz0-42" value="Check arm &#xa;temperature " style="" vertex="1" parent="4">
          <mxGeometry x="85" y="102" width="110" height="50" as="geometry" />
        </mxCell>
        <mxCell id="9L8peLnERHQGu5c24tz0-82" style="edgeStyle=orthogonalEdgeStyle;rounded=0;orthogonalLoop=1;jettySize=auto;html=1;entryX=1.008;entryY=0.452;entryDx=0;entryDy=0;entryPerimeter=0;strokeColor=#FF0000;" edge="1" parent="4" source="9L8peLnERHQGu5c24tz0-80" target="9L8peLnERHQGu5c24tz0-42">
          <mxGeometry relative="1" as="geometry">
            <Array as="points">
              <mxPoint x="215" y="222" />
              <mxPoint x="215" y="125" />
            </Array>
          </mxGeometry>
        </mxCell>
        <mxCell id="9L8peLnERHQGu5c24tz0-84" style="edgeStyle=orthogonalEdgeStyle;rounded=0;orthogonalLoop=1;jettySize=auto;html=1;entryX=0.469;entryY=-0.06;entryDx=0;entryDy=0;entryPerimeter=0;strokeColor=#FF0000;" edge="1" parent="4" source="9L8peLnERHQGu5c24tz0-80" target="33">
          <mxGeometry relative="1" as="geometry" />
        </mxCell>
        <mxCell id="9L8peLnERHQGu5c24tz0-80" value="Temperature&#xa;High?" style="rhombus;fillColor=#ffffc0;strokeColor=#ff0000;" vertex="1" parent="4">
          <mxGeometry x="87.5" y="192" width="105" height="58" as="geometry" />
        </mxCell>
        <mxCell id="9L8peLnERHQGu5c24tz0-102" value="Change RGB color&lt;br&gt;to Red&amp;nbsp;" style="whiteSpace=wrap;html=1;fillColor=rgb(255, 255, 255);strokeColor=rgb(0, 0, 0);fontColor=rgb(0, 0, 0);" vertex="1" parent="4">
          <mxGeometry x="82.5" y="372" width="120" height="38" as="geometry" />
        </mxCell>
        <mxCell id="9L8peLnERHQGu5c24tz0-103" value="" style="edgeStyle=orthogonalEdgeStyle;rounded=0;orthogonalLoop=1;jettySize=auto;html=1;strokeColor=#FF0000;" edge="1" parent="4">
          <mxGeometry relative="1" as="geometry">
            <mxPoint x="142.5" y="352" as="sourcePoint" />
            <mxPoint x="142" y="372" as="targetPoint" />
          </mxGeometry>
        </mxCell>
        <mxCell id="9L8peLnERHQGu5c24tz0-105" value="Motors to initial state" style="rounded=0;whiteSpace=wrap;html=1;" vertex="1" parent="4">
          <mxGeometry x="85" y="442" width="120" height="60" as="geometry" />
        </mxCell>
        <mxCell id="9L8peLnERHQGu5c24tz0-106" style="edgeStyle=orthogonalEdgeStyle;rounded=0;orthogonalLoop=1;jettySize=auto;html=1;strokeColor=#FF0000;entryX=1.005;entryY=0.2;entryDx=0;entryDy=0;entryPerimeter=0;" edge="1" parent="4" target="9L8peLnERHQGu5c24tz0-42">
          <mxGeometry relative="1" as="geometry">
            <mxPoint x="235.5" y="102" as="targetPoint" />
            <mxPoint x="205.5" y="472" as="sourcePoint" />
            <Array as="points">
              <mxPoint x="256" y="472" />
              <mxPoint x="256" y="112" />
            </Array>
          </mxGeometry>
        </mxCell>
        <mxCell id="9L8peLnERHQGu5c24tz0-111" value="Critical section" style="shape=note;whiteSpace=wrap;html=1;backgroundOutline=1;darkOpacity=0.05;size=15;" vertex="1" parent="4">
          <mxGeometry x="25.5" y="512" width="70" height="48" as="geometry" />
        </mxCell>
        <mxCell id="9L8peLnERHQGu5c24tz0-112" value="" style="endArrow=none;dashed=1;html=1;dashPattern=1 3;strokeWidth=2;rounded=0;entryX=-0.018;entryY=0.4;entryDx=0;entryDy=0;entryPerimeter=0;" edge="1" parent="4" target="33">
          <mxGeometry width="50" height="50" relative="1" as="geometry">
            <mxPoint x="35.5" y="512" as="sourcePoint" />
            <mxPoint x="35.499999999999886" y="284.99799999999993" as="targetPoint" />
            <Array as="points">
              <mxPoint x="35.5" y="322" />
            </Array>
          </mxGeometry>
        </mxCell>
        <mxCell id="9L8peLnERHQGu5c24tz0-113" value="" style="endArrow=none;dashed=1;html=1;dashPattern=1 3;strokeWidth=2;rounded=0;entryX=-0.018;entryY=0.4;entryDx=0;entryDy=0;entryPerimeter=0;exitX=0;exitY=0;exitDx=27.5;exitDy=0;exitPerimeter=0;" edge="1" parent="4" source="9L8peLnERHQGu5c24tz0-111">
          <mxGeometry width="50" height="50" relative="1" as="geometry">
            <mxPoint x="32.48000000000002" y="582" as="sourcePoint" />
            <mxPoint x="82.5" y="392" as="targetPoint" />
            <Array as="points">
              <mxPoint x="55.5" y="392" />
            </Array>
          </mxGeometry>
        </mxCell>
        <mxCell id="9L8peLnERHQGu5c24tz0-114" value="" style="endArrow=none;dashed=1;html=1;dashPattern=1 3;strokeWidth=2;rounded=0;entryX=-0.018;entryY=0.4;entryDx=0;entryDy=0;entryPerimeter=0;exitX=0;exitY=0;exitDx=70;exitDy=31.5;exitPerimeter=0;" edge="1" parent="4" source="9L8peLnERHQGu5c24tz0-111">
          <mxGeometry width="50" height="50" relative="1" as="geometry">
            <mxPoint x="115.5" y="622" as="sourcePoint" />
            <mxPoint x="145" y="502" as="targetPoint" />
            <Array as="points">
              <mxPoint x="145.5" y="544" />
            </Array>
          </mxGeometry>
        </mxCell>
        <mxCell id="9L8peLnERHQGu5c24tz0-61" value="Yes" style="text;html=1;align=center;verticalAlign=middle;resizable=0;points=[];autosize=1;strokeColor=none;fillColor=none;" vertex="1" parent="1">
          <mxGeometry x="290" y="375" width="40" height="30" as="geometry" />
        </mxCell>
        <mxCell id="9L8peLnERHQGu5c24tz0-64" value="Yes" style="text;html=1;align=center;verticalAlign=middle;resizable=0;points=[];autosize=1;strokeColor=none;fillColor=none;" vertex="1" parent="1">
          <mxGeometry x="600" y="342" width="40" height="30" as="geometry" />
        </mxCell>
        <mxCell id="9L8peLnERHQGu5c24tz0-66" style="edgeStyle=orthogonalEdgeStyle;rounded=0;orthogonalLoop=1;jettySize=auto;html=1;strokeColor=#FF0000;" edge="1" parent="1">
          <mxGeometry relative="1" as="geometry">
            <mxPoint x="602.5" y="537" as="targetPoint" />
            <mxPoint x="603" y="507" as="sourcePoint" />
          </mxGeometry>
        </mxCell>
        <mxCell id="9L8peLnERHQGu5c24tz0-74" style="edgeStyle=orthogonalEdgeStyle;rounded=0;orthogonalLoop=1;jettySize=auto;html=1;strokeColor=#FF0000;" edge="1" parent="1" source="9L8peLnERHQGu5c24tz0-65">
          <mxGeometry relative="1" as="geometry">
            <mxPoint x="540" y="250" as="targetPoint" />
            <Array as="points">
              <mxPoint x="500" y="576" />
              <mxPoint x="500" y="250" />
            </Array>
          </mxGeometry>
        </mxCell>
        <mxCell id="9L8peLnERHQGu5c24tz0-77" style="edgeStyle=orthogonalEdgeStyle;rounded=0;orthogonalLoop=1;jettySize=auto;html=1;exitX=0.5;exitY=1;exitDx=0;exitDy=0;strokeColor=#FF0000;" edge="1" parent="1" source="9L8peLnERHQGu5c24tz0-41">
          <mxGeometry relative="1" as="geometry">
            <mxPoint x="865" y="230" as="targetPoint" />
          </mxGeometry>
        </mxCell>
        <mxCell id="9L8peLnERHQGu5c24tz0-81" style="edgeStyle=orthogonalEdgeStyle;rounded=0;orthogonalLoop=1;jettySize=auto;html=1;strokeColor=#FF0000;" edge="1" parent="1">
          <mxGeometry relative="1" as="geometry">
            <mxPoint x="864.5" y="320" as="targetPoint" />
            <mxPoint x="860" y="280" as="sourcePoint" />
            <Array as="points">
              <mxPoint x="865" y="280" />
              <mxPoint x="865" y="300" />
            </Array>
          </mxGeometry>
        </mxCell>
        <mxCell id="9L8peLnERHQGu5c24tz0-83" value="No" style="text;html=1;align=center;verticalAlign=middle;resizable=0;points=[];autosize=1;strokeColor=none;fillColor=none;" vertex="1" parent="1">
          <mxGeometry x="900" y="325" width="40" height="30" as="geometry" />
        </mxCell>
        <mxCell id="9L8peLnERHQGu5c24tz0-86" style="edgeStyle=orthogonalEdgeStyle;rounded=0;orthogonalLoop=1;jettySize=auto;html=1;strokeColor=#FF0000;exitX=0.465;exitY=1.056;exitDx=0;exitDy=0;exitPerimeter=0;" edge="1" parent="1" source="10">
          <mxGeometry relative="1" as="geometry">
            <mxPoint x="280" y="490" as="targetPoint" />
          </mxGeometry>
        </mxCell>
        <mxCell id="9L8peLnERHQGu5c24tz0-100" value="No" style="text;html=1;align=center;verticalAlign=middle;resizable=0;points=[];autosize=1;strokeColor=none;fillColor=none;" vertex="1" parent="1">
          <mxGeometry x="210" y="485" width="40" height="30" as="geometry" />
        </mxCell>
        <mxCell id="9L8peLnERHQGu5c24tz0-104" style="edgeStyle=orthogonalEdgeStyle;rounded=0;orthogonalLoop=1;jettySize=auto;html=1;strokeColor=#FF0000;entryX=0.484;entryY=-0.05;entryDx=0;entryDy=0;entryPerimeter=0;" edge="1" parent="1" target="9L8peLnERHQGu5c24tz0-105">
          <mxGeometry relative="1" as="geometry">
            <mxPoint x="880" y="570" as="targetPoint" />
            <mxPoint x="870" y="540" as="sourcePoint" />
            <Array as="points">
              <mxPoint x="868" y="540" />
            </Array>
          </mxGeometry>
        </mxCell>
        <mxCell id="9L8peLnERHQGu5c24tz0-120" value="" style="endArrow=none;dashed=1;html=1;dashPattern=1 3;strokeWidth=2;rounded=0;" edge="1" parent="1">
          <mxGeometry width="50" height="50" relative="1" as="geometry">
            <mxPoint x="370" y="510" as="sourcePoint" />
            <mxPoint x="340" y="600" as="targetPoint" />
            <Array as="points">
              <mxPoint x="370" y="560" />
              <mxPoint x="370" y="600" />
            </Array>
          </mxGeometry>
        </mxCell>
        <mxCell id="9L8peLnERHQGu5c24tz0-123" value="" style="endArrow=none;dashed=1;html=1;dashPattern=1 3;strokeWidth=2;rounded=0;entryX=0.382;entryY=0.053;entryDx=0;entryDy=0;entryPerimeter=0;" edge="1" parent="1" target="9L8peLnERHQGu5c24tz0-96">
          <mxGeometry width="50" height="50" relative="1" as="geometry">
            <mxPoint x="370" y="600" as="sourcePoint" />
            <mxPoint x="380" y="610" as="targetPoint" />
          </mxGeometry>
        </mxCell>
      </root>
    </mxGraphModel>
  </diagram>
</mxfile>
